<?xml version="1.0" encoding="UTF-8" standalone="no"?> <!-- Created with Vectornator for iOS (http://vectornator.io/) --><!DOCTYPE svg PUBLIC "-//W3C//DTD SVG 1.1//EN" "http://www.w3.org/Graphics/SVG/1.1/DTD/svg11.dtd">
<svg height="100%" style="fill-rule:nonzero;clip-rule:evenodd;stroke-linecap:round;stroke-linejoin:round;" xmlns:xlink="http://www.w3.org/1999/xlink" xmlns="http://www.w3.org/2000/svg" xml:space="preserve" width="100%" xmlns:vectornator="http://vectornator.io" version="1.1" viewBox="0 0 194 194">
<metadata>
<vectornator:setting key="DimensionsVisible" value="0"/>
<vectornator:setting key="PencilOnly" value="0"/>
<vectornator:setting key="SnapToPoints" value="0"/>
<vectornator:setting key="OutlineMode" value="0"/>
<vectornator:setting key="CMYKEnabledKey" value="0"/>
<vectornator:setting key="RulersVisible" value="1"/>
<vectornator:setting key="SnapToEdges" value="0"/>
<vectornator:setting key="GuidesVisible" value="0"/>
<vectornator:setting key="DisplayWhiteBackground" value="0"/>
<vectornator:setting key="doHistoryDisabled" value="0"/>
<vectornator:setting key="SnapToGuides" value="1"/>
<vectornator:setting key="TimeLapseWatermarkDisabled" value="0"/>
<vectornator:setting key="Units" value="Points"/>
<vectornator:setting key="DynamicGuides" value="1"/>
<vectornator:setting key="IsolateActiveLayer" value="0"/>
<vectornator:setting key="SnapToGrid" value="0"/>
</metadata>
<defs/>
<g id="gee_me_036" vectornator:layerName="gee_me_036">
<g opacity="1">
<path stroke="#38454f" stroke-width="6" d="M2.5+96.5C2.5+148.691+44.8091+191+97+191C149.191+191+191.5+148.691+191.5+96.5C191.5+44.3091+149.191+2+97+2C44.8091+2+2.5+44.3091+2.5+96.5Z" fill="#e57e25" stroke-linecap="butt" fill-opacity="0.661964" opacity="1" stroke-linejoin="miter"/>
<path d="M4.96797+104.258C17.2256+92.5446+37.3777+88.8254+51.8629+95.593C38.8168+114.218+29.4467+135.165+24.2566+157.308C25.851+159.235+27.5334+161.081+29.2735+162.873C29.7735+162.421+30.1231+161.826+30.2753+161.169C35.1835+138.899+44.4762+117.831+57.6108+99.194C66.26+105.911+70.505+116.967+69.544+131.154L69.5303+131.337L69.537+131.523C70.3868+152.06+82.2179+170.854+101.182+181.788C106.942+185.13+113.184+187.563+119.686+189C125.24+187.651+130.661+185.798+135.88+183.465C125.559+184.264+114.631+181.724+104.56+175.918C87.6717+166.18+77.1233+149.557+76.3073+131.422C77.6445+110.88+69.5099+99.6684+61.6699+93.6691C66.7014+87.0878+72.1971+80.8754+78.115+75.0793C102.348+97.6053+125.052+121.724+146.076+147.274L160.677+165.048L165.907+160.743L151.306+142.969C130.188+117.303+107.389+93.0678+83.0607+70.4248C87.7715+66.1557+92.7135+62.1492+97.8642+58.4235C105.955+68.6567+118.964+73.6702+135.223+72.5996C150.521+73.2941+164.878+81.627+174.637+95.4782C182.227+106.25+186.089+119.061+185.703+131.012C187.834+125.492+189.44+119.784+190.5+113.963C188.439+105.937+184.94+98.3517+180.172+91.576C169.153+75.9361+152.806+66.55+135.325+65.8248L135.139+65.8183L134.956+65.8317C121.178+66.7598+110.264+62.7459+103.491+54.518C121.153+42.7528+140.844+34.3683+161.563+29.7901C162.216+29.6285+162.804+29.2716+163.249+28.767C161.466+27.0269+159.615+25.3579+157.701+23.7639C137.058+28.6148+117.445+37.1113+99.7834+48.8542C93.196+35.6165+95.5012+17.0128+105.427+4.24581L106.804+2.47434C103.641+2.1587+100.464+2+97.2852+2L97.2852+4.07987C87.8946+18.9538+86.4964+38.3227+94.1505+52.7597C88.5419+56.8032+83.1698+61.1654+78.0606+65.8248C67.014+55.6915+55.6652+45.8932+44.0296+36.4431L32.8077+27.3512C31.1438+28.8987+29.5359+30.5055+27.9871+32.1683L39.7709+41.7139C51.1746+50.974+62.2997+60.5723+73.1316+70.496C66.931+76.5904+61.1782+83.1247+55.9181+90.0482C55.5321+89.8515+55.1393+89.6484+54.7702+89.4757C38.7152+81.952+17.598+85.1055+3.14347+96.8465L2.5+96.8465C2.5+99.9969+2.66249+103.107+2.96038+106.175L4.96773+104.258L4.96797+104.258Z" opacity="1" fill="#38454f"/>
</g>
</g>
</svg>
