<?xml version="1.0" encoding="UTF-8" standalone="no"?> <!-- Created with Vectornator for iOS (http://vectornator.io/) --><!DOCTYPE svg PUBLIC "-//W3C//DTD SVG 1.1//EN" "http://www.w3.org/Graphics/SVG/1.1/DTD/svg11.dtd">
<svg height="100%" style="fill-rule:nonzero;clip-rule:evenodd;stroke-linecap:round;stroke-linejoin:round;" xmlns:xlink="http://www.w3.org/1999/xlink" xmlns="http://www.w3.org/2000/svg" xml:space="preserve" width="100%" xmlns:vectornator="http://vectornator.io" version="1.1" viewBox="0 0 194 194">
<metadata>
<vectornator:setting key="DimensionsVisible" value="0"/>
<vectornator:setting key="PencilOnly" value="0"/>
<vectornator:setting key="SnapToPoints" value="0"/>
<vectornator:setting key="OutlineMode" value="0"/>
<vectornator:setting key="CMYKEnabledKey" value="0"/>
<vectornator:setting key="RulersVisible" value="1"/>
<vectornator:setting key="SnapToEdges" value="0"/>
<vectornator:setting key="GuidesVisible" value="0"/>
<vectornator:setting key="DisplayWhiteBackground" value="0"/>
<vectornator:setting key="doHistoryDisabled" value="0"/>
<vectornator:setting key="SnapToGuides" value="1"/>
<vectornator:setting key="TimeLapseWatermarkDisabled" value="0"/>
<vectornator:setting key="Units" value="Points"/>
<vectornator:setting key="DynamicGuides" value="1"/>
<vectornator:setting key="IsolateActiveLayer" value="0"/>
<vectornator:setting key="SnapToGrid" value="0"/>
</metadata>
<defs/>
<g id="gee_me_036" vectornator:layerName="gee_me_036">
<g opacity="1">
<path stroke="#38454f" stroke-width="6" d="M191.5+96.5C191.5+148.691+149.191+191+97+191C44.8091+191+2.5+148.691+2.5+96.5C2.5+44.3091+44.8091+2+97+2C149.191+2+191.5+44.3091+191.5+96.5Z" fill="#e57e25" stroke-linecap="butt" fill-opacity="0.661964" opacity="1" stroke-linejoin="miter"/>
<path d="M189.032+104.258C176.774+92.5446+156.622+88.8254+142.137+95.593C155.183+114.218+164.553+135.165+169.743+157.308C168.149+159.235+166.467+161.081+164.726+162.873C164.227+162.421+163.877+161.826+163.725+161.169C158.817+138.899+149.524+117.831+136.389+99.194C127.74+105.911+123.495+116.967+124.456+131.154L124.47+131.337L124.463+131.523C123.613+152.06+111.782+170.854+92.8182+181.788C87.0577+185.13+80.8164+187.563+74.3145+189C68.7596+187.651+63.339+185.798+58.12+183.465C68.4415+184.264+79.3688+181.724+89.4398+175.918C106.328+166.18+116.877+149.557+117.693+131.422C116.355+110.88+124.49+99.6684+132.33+93.6691C127.299+87.0878+121.803+80.8754+115.885+75.0793C91.6521+97.6053+68.9479+121.724+47.9236+147.274L33.3234+165.048L28.0932+160.743L42.6937+142.969C63.8122+117.303+86.6109+93.0678+110.939+70.4248C106.229+66.1557+101.287+62.1492+96.1358+58.4235C88.045+68.6567+75.0356+73.6702+58.7767+72.5996C43.479+73.2941+29.1222+81.627+19.363+95.4782C11.7731+106.25+7.91084+119.061+8.29669+131.012C6.16646+125.492+4.56047+119.784+3.5+113.963C5.56097+105.937+9.06039+98.3517+13.8282+91.576C24.847+75.9361+41.1939+66.55+58.6748+65.8248L58.8613+65.8183L59.0441+65.8317C72.8219+66.7598+83.7358+62.7459+90.5094+54.518C72.8465+42.7528+53.1558+34.3683+32.4367+29.7901C31.7839+29.6285+31.1958+29.2716+30.7509+28.767C32.5338+27.0269+34.3847+25.3579+36.2992+23.7639C56.9423+28.6148+76.5553+37.1113+94.2166+48.8542C100.804+35.6165+98.4988+17.0128+88.5734+4.24581L87.1957+2.47434C90.3589+2.1587+93.5359+2+96.7148+2L96.7148+4.07987C106.105+18.9538+107.504+38.3227+99.8495+52.7597C105.458+56.8032+110.83+61.1654+115.939+65.8248C126.986+55.6915+138.335+45.8932+149.97+36.4431L161.192+27.3512C162.856+28.8987+164.464+30.5055+166.013+32.1683L154.229+41.7139C142.825+50.974+131.7+60.5723+120.868+70.496C127.069+76.5904+132.822+83.1247+138.082+90.0482C138.468+89.8515+138.861+89.6484+139.23+89.4757C155.285+81.952+176.402+85.1055+190.857+96.8465L191.5+96.8465C191.5+99.9969+191.338+103.107+191.04+106.175L189.032+104.258L189.032+104.258Z" opacity="1" fill="#38454f"/>
</g>
</g>
</svg>
