<?xml version="1.0" encoding="UTF-8" standalone="no"?> <!-- Created with Vectornator for iOS (http://vectornator.io/) --><!DOCTYPE svg PUBLIC "-//W3C//DTD SVG 1.1//EN" "http://www.w3.org/Graphics/SVG/1.1/DTD/svg11.dtd">
<svg height="100%" style="fill-rule:nonzero;clip-rule:evenodd;stroke-linecap:round;stroke-linejoin:round;" xmlns:xlink="http://www.w3.org/1999/xlink" xmlns="http://www.w3.org/2000/svg" xml:space="preserve" width="100%" xmlns:vectornator="http://vectornator.io" version="1.1" viewBox="0 0 204 204">
<metadata>
<vectornator:setting key="DimensionsVisible" value="0"/>
<vectornator:setting key="PencilOnly" value="0"/>
<vectornator:setting key="SnapToPoints" value="0"/>
<vectornator:setting key="OutlineMode" value="0"/>
<vectornator:setting key="CMYKEnabledKey" value="0"/>
<vectornator:setting key="RulersVisible" value="1"/>
<vectornator:setting key="SnapToEdges" value="0"/>
<vectornator:setting key="GuidesVisible" value="0"/>
<vectornator:setting key="DisplayWhiteBackground" value="0"/>
<vectornator:setting key="doHistoryDisabled" value="0"/>
<vectornator:setting key="SnapToGuides" value="1"/>
<vectornator:setting key="TimeLapseWatermarkDisabled" value="0"/>
<vectornator:setting key="Units" value="Points"/>
<vectornator:setting key="DynamicGuides" value="1"/>
<vectornator:setting key="IsolateActiveLayer" value="0"/>
<vectornator:setting key="SnapToGrid" value="0"/>
</metadata>
<defs/>
<g id="gee_me_006" vectornator:layerName="gee_me_006">
<path d="M102+198.811C48.6196+198.811+5.18919+155.38+5.18919+102C5.18919+48.6196+48.6196+5.18919+102+5.18919C155.38+5.18919+198.811+48.6196+198.811+102C198.811+155.38+155.38+198.811+102+198.811Z" fill-opacity="0" fill="#ffffff" opacity="1"/>
<path d="M102+7.87838C153.901+7.87838+196.122+50.0986+196.122+102C196.122+153.901+153.901+196.122+102+196.122C50.0986+196.122+7.87838+153.901+7.87838+102C7.87838+50.0986+50.0986+7.87838+102+7.87838M102+2.5C47.0491+2.5+2.5+47.0491+2.5+102C2.5+156.951+47.0491+201.5+102+201.5C156.951+201.5+201.5+156.951+201.5+102C201.5+47.0491+156.951+2.5+102+2.5L102+2.5Z" opacity="1" fill="#214255"/>
<path stroke="#214255" stroke-width="1" d="M80.6801+94.8952L32.35+77.125M102+27.375L102+66.465M94.8952+102L57.225+161.7M146.775+161.7L116.215+116.215M171.65+77.125L123.32+94.8952" fill="#214255" stroke-linecap="square" opacity="1" stroke-linejoin="miter"/>
<g opacity="1">
<path d="M78.4696+128.892L65.3786+88.8499L102+63.3779L138.621+88.8499L125.53+128.892L78.4696+128.892Z" opacity="1" fill="#214255"/>
<path d="M102+66.6587L135.443+89.9202L123.578+126.203L80.4219+126.203L68.5572+89.9148L102+66.6587M102+60.1078L62.2+87.7903L76.5226+131.581L127.477+131.581L141.8+87.7849L102+60.1078L102+60.1078Z" opacity="1" fill="#214255"/>
<path d="M5.19457+100.892C5.45273+78.7815+13.3374+57.3595+27.4987+40.2831L37.4595+42.3376L37.4595+80.0508L12.8319+108.524L5.19457+100.892Z" opacity="1" fill="#214255"/>
<path d="M28.5529+43.2466L34.7703+44.532L34.7703+79.0505L12.6866+104.582L7.90527+99.8002C8.38932+79.2333+15.6555+59.3441+28.5529+43.2466M26.4768+37.325C11.5626+54.7187+2.5+77.281+2.5+102L12.9717+112.472L40.1486+81.0512L40.1486+40.1486L26.4768+37.325L26.4768+37.325Z" opacity="1" fill="#214255"/>
<path d="M70.4182+22.1741L74.382+9.30365C83.4177+6.57143+92.7008+5.18919+102+5.18919C111.299+5.18919+120.582+6.57143+129.618+9.30365L133.582+22.1741L102+31.1291L70.4182+22.1741Z" opacity="1" fill="#214255"/>
<path d="M102+7.87838C110.557+7.87838+119.114+9.08851+127.472+11.4765L130.199+20.3401L102+28.3323L73.8012+20.3401L76.528+11.4765C84.886+9.08851+93.443+7.87838+102+7.87838M102+2.5C91.609+2.5+81.6267+4.17268+72.2307+7.15768L67.0405+24.0135L102+33.9205L136.959+24.0135L131.769+7.15768C122.373+4.17268+112.391+2.5+102+2.5L102+2.5Z" opacity="1" fill="#214255"/>
<g opacity="1">
<path d="M70.601+193.545C50.2277+186.553+32.6404+172.796+20.8295+154.595L25.1645+145.845L58.3437+156.628L78.163+188.059L70.601+193.545Z" opacity="1" fill="#214255"/>
<path d="M26.5467+149.115L56.5957+158.882L74.5488+187.355L70.1654+190.533C51.3948+183.778+35.1414+171.075+23.9275+154.396L26.5467+149.115M23.7876+142.564L17.7477+154.762C29.9889+174.275+48.7594+189.237+71.0582+196.53L81.7827+188.748L60.1024+154.369L23.7876+142.564L23.7876+142.564Z" opacity="1" fill="#214255"/>
</g>
<g opacity="1">
<path d="M166.541+80.0239L166.541+42.3376L176.501+40.2831C190.663+57.3595+198.547+78.7815+198.805+100.892L191.658+108.04L166.541+80.0239Z" opacity="1" fill="#214255"/>
<path d="M175.447+43.2466C188.339+59.3441+195.611+79.2333+196.095+99.8002L191.765+104.135L169.23+78.9967L169.23+44.532L175.447+43.2466M177.523+37.325L163.851+40.1486L163.851+81.0512L191.55+111.95L201.5+102C201.5+77.281+192.437+54.7187+177.523+37.325L177.523+37.325Z" opacity="1" fill="#214255"/>
</g>
<g opacity="1">
<path d="M125.305+188.543L145.651+156.617L178.631+145.624L183.154+154.606C171.322+172.828+153.702+186.602+133.291+193.578L125.305+188.543Z" opacity="1" fill="#214255"/>
<path d="M177.276+148.91L180.056+154.423C168.805+171.15+152.481+183.875+133.63+190.609L129.026+187.704L147.404+158.86L177.276+148.91M179.986+142.338L143.892+154.369L121.583+189.377L132.931+196.536C155.23+189.243+174+174.28+186.242+154.767L179.986+142.338L179.986+142.338Z" opacity="1" fill="#214255"/>
</g>
</g>
</g>
</svg>
