<?xml version="1.0" encoding="UTF-8"?>
<svg width="264px" height="280px" viewBox="0 0 264 280" version="1.1" xmlns="http://www.w3.org/2000/svg" xmlns:xlink="http://www.w3.org/1999/xlink">
    <title id="Title">Avataaar/Default</title>
    <desc>Created with python_avatars</desc>
    <defs>
        <path d="M 100 0 C 130.9279 -0 156 25.0721 156 56 L 156.0008 62.1661 C 161.6758 63.1185 166 68.0543 166 74 L 166 88 C 166 94.0524 161.5192 99.0583 155.694 99.8814 C 153.6279 119.6865 141.2379 136.4217 124.001 144.6105 L 124 163 L 76 163 L 76 144.6109 C 58.7625 136.4223 46.3721 119.6869 44.3051 99.881 C 38.4808 99.0583 34 94.0524 34 88 L 34 74 C 34 68.0539 38.3247 63.118 44.0002 62.1659 L 44 56 C 44 25.0721 69.0721 0 100 0 Z" id="path-1"></path>
        <path d="M83,36.3476251 C83,52.6289957 105.161905,65.8276544 132.5,65.8276544 C159.838095,65.8276544 182,52.6289957 182,36.3476251 C182,34.9853134 181.844841,33.6445843 181.544472,32.3313638 C210.784239,41.4879251 232,68.792221 232,101.051724 L232,110 L32,110 L32,101.051724 C32,68.3970853 53.7386736,40.8197864 83.5337207,32.0021267 C83.1821692,33.4207025 83,34.871494 83,36.3476251 Z" id="path-3"></path>
        <rect id="path-5" x="0" y="0" width="264" height="280"></rect>
        <path d="M74,0 C114.869071,0 148,33.1309285 148,74 L148,84.1482318 L148,197.608051 C135.525121,187.236892 119.490913,181 102,181 L102,181 L98,181 L98,162.610951 C115.530782,154.282984 128.048193,137.114792 129.791419,116.867187 C135.569129,116.002364 140,111.018625 140,105 L140,105 L140,92 C140,87.3536213 137.359271,83.3240177 133.496777,81.3301515 C132.723933,81.0500337 131.951808,80.748163 131.180891,80.4262497 C130.794819,80.3202581 130.400778,80.2331546 130,80.1659169 L130,80.1659169 L130.000458,79.9172528 C117.224481,74.2339715 104.877985,63.0706967 96.1104311,47.8848473 C93.1752556,42.8009742 90.8310687,37.5951441 89.0661426,32.3970356 C80.4313947,42.9409152 67.7445474,53.6023901 52.3415164,62.4953343 C42.777598,68.0170651 33.1467898,72.2910056 24,75.2659587 L24.0003852,137.246608 C29.6019576,148.318362 38.7728825,157.277529 50,162.610951 L50,162.610951 L50,181 L46,181 C38.3273639,181 30.9350359,182.200142 24.0004995,184.422941 L24,230 C24,244.105888 13.5691766,255.775526 0,257.716445 L0,74 C0,33.1309285 33.1309285,0 74,0 Z" id="path-7"></path>
    </defs>
    <g id="Avataaar/Default" stroke="none" stroke-width="1" fill="none" fill-rule="evenodd">
        <g id="Body" transform="translate(32.000000, 36.000000)">
            <mask id="mask-2" fill="white">
                <use xlink:href="#path-1"></use>
            </mask>
            <use fill="#D0C6AC" xlink:href="#path-1"></use>
            <g id="Skin-Color" mask="url(#mask-2)" fill="">
                <g transform="translate(-32.000000, 0.000000)" id="Color">
                    <rect x="0" y="0" width="264" height="244"></rect>
                </g>
            </g>
            <path d="M44,94 C44,124.927946 69.072054,150 100,150 C130.927946,150 156,124.927946 156,94 L156,94 L156,102 C156,132.927946 130.927946,158 100,158 C69.072054,158 44,132.927946 44,102 Z" id="Neck-Shadow" fill-opacity="0.100000001" fill="#000000" mask="url(#mask-2)"></path>
        </g>
        <g id="Clothing" transform="translate(0.000000, 170.000000)">
            <!-- Clothing goes here -->
        </g>
        <g id="Face" transform="translate(76.000000, 82.000000)" fill="#000000">
            <g id="Mouth" transform="translate(2.000000, 52.000000)">    
                <!-- Mouth goes here -->
            </g>
            <g id="Nose" transform="translate(28.000000, 40.000000)" fill-opacity="0.16">
                <!-- Nose goes here -->
            </g>
            <g id="Eyes" transform="translate(0.000000, 8.000000)">
                <!-- Eyes go here -->
            </g>
            <g id="Eyebrow" fill-opacity="0.599999964">
                <!-- Eyebrows go here -->
            </g>
        </g>
        <g id="Top">
            <!-- Top goes here -->
        </g>
    </g>
</svg>